<?xml version="1.0" encoding="UTF-8" standalone="no"?>
<svg
   width="16"
   height="16"
   viewBox="0 0 256 256"
   xmlns="http://www.w3.org/2000/svg"
   xmlns:svg="http://www.w3.org/2000/svg">
  <g>
    <circle
       cx="128"
       cy="128"
       fill="#19b026"
       r="112"
       stroke="#000000"
       stroke-width="8" />
    <path
       style="display:inline;fill:#ffffff;fill-opacity:1;stroke:#000000;stroke-opacity:1;stroke-width:4;stroke-miterlimit:4;stroke-dasharray:none;stroke-linejoin:round"
       d="m 85.108188,58.418234 q 4.290541,-3.659579 9.212043,-6.94058 5.047696,-3.281002 10.852549,-5.678657 5.93104,-2.523848 12.61923,-3.911964 6.81439,-1.388116 14.63832,-1.388116 10.85254,0 19.68601,3.028617 8.83347,2.902425 15.14308,8.454889 6.30962,5.426272 9.71682,13.2502 3.53338,7.697734 3.53338,17.288355 0,9.338236 -2.65004,16.026432 -2.65004,6.6882 -6.68819,11.73589 -4.03816,4.9215 -8.83347,8.70727 -4.79531,3.65958 -9.08585,6.81439 -4.16435,3.15481 -7.31916,6.30962 -3.15481,3.02862 -3.78577,6.94058 l -3.02862,17.54074 h -21.83128 l -2.39765,-19.8122 q -0.75716,-5.80485 1.6405,-10.09539 2.39765,-4.29054 6.30962,-7.82393 4.03815,-3.65958 8.83346,-6.94058 4.92151,-3.40719 9.08586,-7.19296 4.29054,-3.91197 7.06677,-8.83347 2.90242,-4.921503 2.90242,-11.609699 0,-8.328697 -5.80485,-13.124007 -5.80485,-4.921502 -15.26927,-4.921502 -6.81439,0 -11.48351,1.514308 -4.66912,1.514309 -8.07631,3.281002 -3.281,1.766693 -5.55247,3.281002 -2.27146,1.514308 -4.29054,1.514308 -4.290538,0 -6.688193,-3.911964 z M 107.44424,201.64658 q 0,-3.91196 1.38811,-7.44535 1.51431,-3.53339 4.03816,-6.05723 2.65004,-2.52385 6.18343,-4.03816 3.53338,-1.51431 7.57154,-1.51431 4.03816,0 7.57154,1.51431 3.53339,1.51431 6.05724,4.03816 2.65004,2.52384 4.16434,6.05723 1.51431,3.53339 1.51431,7.44535 0,4.03816 -1.51431,7.57154 -1.5143,3.53339 -4.16434,6.05724 -2.52385,2.52385 -6.05724,3.91196 -3.53338,1.51431 -7.57154,1.51431 -4.03816,0 -7.57154,-1.51431 -3.53339,-1.38811 -6.18343,-3.91196 -2.52385,-2.52385 -4.03816,-6.05724 -1.38811,-3.53338 -1.38811,-7.57154 z" />
  </g>
</svg>
